# xmcd
#
# Track frame offsets: 
#        150
#        13466
#        27406
#        42455
#        60375
#        74332
#        88818
#        109187
#        124408
#        144990
#        160189
#        175448
#
# Disc length: 2607 seconds
#
# Revision: 0
# Processed by: cddbd v1.5.2PL0 Copyright (c) Steve Scherf et al.
# Submitted via: ExactAudioCopy v0.99pb3
#
DISCID=af0a2d0c
DTITLE=Christoph Slidin´ John - here on earth
DYEAR=2009
DGENRE=Blues
TTITLE0=Nick of time
TTITLE1=Who´s to blame
TTITLE2=Join in together
TTITLE3=Saw the light
TTITLE4=There was a time
TTITLE5=Here on earth
TTITLE6=Somehow lost
TTITLE7=Song for you
TTITLE8=How would you feel
TTITLE9=We got rhythm
TTITLE10=Good boy
TTITLE11=Voodoo fever
EXTD=
EXTT0=
EXTT1=
EXTT2=
EXTT3=
EXTT4=
EXTT5=
EXTT6=
EXTT7=
EXTT8=
EXTT9=
EXTT10=
EXTT11=
PLAYORDER=
